<mxfile host="Electron" agent="Mozilla/5.0 (Windows NT 10.0; Win64; x64) AppleWebKit/537.36 (KHTML, like Gecko) draw.io/26.2.2 Chrome/134.0.6998.178 Electron/35.1.2 Safari/537.36" version="26.2.2">
  <diagram name="Trang-1" id="1yHVT0-JcMpjUbxnPdBL">
    <mxGraphModel dx="1271" dy="1438" grid="1" gridSize="10" guides="1" tooltips="1" connect="1" arrows="1" fold="1" page="1" pageScale="1" pageWidth="1169" pageHeight="827" math="0" shadow="0">
      <root>
        <mxCell id="0" />
        <mxCell id="1" parent="0" />
        <mxCell id="9XwMOOoTPB6WWAjTyozQ-1" value="&lt;font style=&quot;font-size: 16px;&quot;&gt;KhachHangService&lt;/font&gt;" style="swimlane;whiteSpace=wrap;html=1;swimlaneFillColor=default;" vertex="1" parent="1">
          <mxGeometry x="170" y="120" width="580" height="400" as="geometry" />
        </mxCell>
        <mxCell id="9XwMOOoTPB6WWAjTyozQ-2" value="&lt;h1 style=&quot;margin-top: 0px;&quot;&gt;&lt;div style=&quot;color: #3b3b3b;background-color: #ffffff;font-family: Consolas, &#39;Courier New&#39;, monospace;font-weight: normal;font-size: 14px;line-height: 19px;white-space: pre;&quot;&gt;&lt;div&gt;@&lt;span style=&quot;color: #267f99;&quot;&gt;Service&lt;/span&gt;&lt;/div&gt;&lt;div&gt;&lt;span style=&quot;color: #0000ff;&quot;&gt;public&lt;/span&gt; &lt;span style=&quot;color: #0000ff;&quot;&gt;class&lt;/span&gt; &lt;span style=&quot;color: #267f99;&quot;&gt;KhachHangService&lt;/span&gt; {&lt;/div&gt;&lt;div&gt;&amp;nbsp; &amp;nbsp; &lt;/div&gt;&lt;div&gt;&amp;nbsp; &amp;nbsp; @&lt;span style=&quot;color: #267f99;&quot;&gt;Autowired&lt;/span&gt;&lt;/div&gt;&lt;div&gt;&amp;nbsp; &amp;nbsp; &lt;span style=&quot;color: #0000ff;&quot;&gt;private&lt;/span&gt; &lt;span style=&quot;color: #267f99;&quot;&gt;KhachHangRepo&lt;/span&gt; &lt;span style=&quot;color: #001080;&quot;&gt;khachHangRepo&lt;/span&gt;;&lt;/div&gt;&lt;br&gt;&lt;div&gt;&amp;nbsp; &amp;nbsp; @&lt;span style=&quot;color: #267f99;&quot;&gt;Autowired&lt;/span&gt;&lt;/div&gt;&lt;div&gt;&amp;nbsp; &amp;nbsp; &lt;span style=&quot;color: #0000ff;&quot;&gt;private&lt;/span&gt; &lt;span style=&quot;color: #267f99;&quot;&gt;KhachHangRepoCustom&lt;/span&gt; &lt;span style=&quot;color: #001080;&quot;&gt;khachHangRepoCustom&lt;/span&gt;;&lt;/div&gt;&lt;br&gt;&lt;div&gt;&amp;nbsp; &amp;nbsp; &lt;span style=&quot;color: #0000ff;&quot;&gt;public&lt;/span&gt; &lt;span style=&quot;color: #267f99;&quot;&gt;Page&lt;/span&gt;&amp;lt;&lt;span style=&quot;color: #267f99;&quot;&gt;KhachHang&lt;/span&gt;&amp;gt; &lt;span style=&quot;color: #795e26;&quot;&gt;getListKhachHang&lt;/span&gt;(&lt;span style=&quot;color: #267f99;&quot;&gt;int&lt;/span&gt; &lt;span style=&quot;color: #001080;&quot;&gt;sttPage&lt;/span&gt;, &lt;span style=&quot;color: #267f99;&quot;&gt;int&lt;/span&gt; &lt;span style=&quot;color: #001080;&quot;&gt;sizePage&lt;/span&gt;){&lt;/div&gt;&lt;br&gt;&lt;div&gt;&amp;nbsp; &amp;nbsp; &amp;nbsp; &amp;nbsp; &lt;span style=&quot;color: #267f99;&quot;&gt;Pageable&lt;/span&gt; &lt;span style=&quot;color: #001080;&quot;&gt;pageable1&lt;/span&gt; &lt;span style=&quot;color: #000000;&quot;&gt;=&lt;/span&gt; &lt;span style=&quot;color: #001080;&quot;&gt;PageRequest&lt;/span&gt;.&lt;span style=&quot;color: #795e26;&quot;&gt;of&lt;/span&gt;(sttPage, sizePage);&lt;/div&gt;&lt;br&gt;&lt;div&gt;&amp;nbsp; &amp;nbsp; &amp;nbsp; &amp;nbsp; &lt;span style=&quot;color: #af00db;&quot;&gt;return&lt;/span&gt; &lt;span style=&quot;color: #001080;&quot;&gt;khachHangRepo&lt;/span&gt;.&lt;span style=&quot;color: #795e26;&quot;&gt;findAll&lt;/span&gt;(pageable1);&lt;/div&gt;&lt;div&gt;&amp;nbsp; &amp;nbsp; }&lt;/div&gt;&lt;div&gt;&lt;br&gt;&lt;/div&gt;&lt;div&gt;}&lt;/div&gt;&lt;/div&gt;&lt;/h1&gt;" style="text;html=1;whiteSpace=wrap;overflow=hidden;rounded=0;" vertex="1" parent="9XwMOOoTPB6WWAjTyozQ-1">
          <mxGeometry x="10" y="30" width="570" height="370" as="geometry" />
        </mxCell>
        <mxCell id="9XwMOOoTPB6WWAjTyozQ-3" value="&lt;font style=&quot;font-size: 16px;&quot;&gt;KhachHangService&lt;/font&gt;" style="swimlane;whiteSpace=wrap;html=1;swimlaneFillColor=default;" vertex="1" parent="1">
          <mxGeometry x="160" y="-340" width="580" height="400" as="geometry" />
        </mxCell>
        <mxCell id="9XwMOOoTPB6WWAjTyozQ-4" value="&lt;h1 style=&quot;margin-top: 0px;&quot;&gt;&lt;div style=&quot;color: #3b3b3b;background-color: #ffffff;font-family: Consolas, &#39;Courier New&#39;, monospace;font-weight: normal;font-size: 14px;line-height: 19px;white-space: pre;&quot;&gt;&lt;div&gt;@&lt;span style=&quot;color: #267f99;&quot;&gt;Service&lt;/span&gt;&lt;/div&gt;&lt;div&gt;&lt;span style=&quot;color: #0000ff;&quot;&gt;public&lt;/span&gt; &lt;span style=&quot;color: #0000ff;&quot;&gt;class&lt;/span&gt; &lt;span style=&quot;color: #267f99;&quot;&gt;KhachHangService&lt;/span&gt; {&lt;/div&gt;&lt;div&gt;&amp;nbsp; &amp;nbsp; &lt;/div&gt;&lt;div&gt;&amp;nbsp; &amp;nbsp; @&lt;span style=&quot;color: #267f99;&quot;&gt;Autowired&lt;/span&gt;&lt;/div&gt;&lt;div&gt;&amp;nbsp; &amp;nbsp; &lt;span style=&quot;color: #0000ff;&quot;&gt;private&lt;/span&gt; &lt;span style=&quot;color: #267f99;&quot;&gt;KhachHangRepo&lt;/span&gt; &lt;span style=&quot;color: #001080;&quot;&gt;khachHangRepo&lt;/span&gt;;&lt;/div&gt;&lt;br&gt;&lt;div&gt;&amp;nbsp; &amp;nbsp; @&lt;span style=&quot;color: #267f99;&quot;&gt;Autowired&lt;/span&gt;&lt;/div&gt;&lt;div&gt;&amp;nbsp; &amp;nbsp; &lt;span style=&quot;color: #0000ff;&quot;&gt;private&lt;/span&gt; &lt;span style=&quot;color: #267f99;&quot;&gt;KhachHangRepoCustom&lt;/span&gt; &lt;span style=&quot;color: #001080;&quot;&gt;khachHangRepoCustom&lt;/span&gt;;&lt;/div&gt;&lt;br&gt;&lt;div&gt;&amp;nbsp; &amp;nbsp; &lt;span style=&quot;color: #0000ff;&quot;&gt;public&lt;/span&gt; &lt;span style=&quot;color: #267f99;&quot;&gt;Page&lt;/span&gt;&amp;lt;&lt;span style=&quot;color: #267f99;&quot;&gt;KhachHang&lt;/span&gt;&amp;gt; &lt;span style=&quot;color: #795e26;&quot;&gt;getListKhachHang&lt;/span&gt;(&lt;span style=&quot;color: #267f99;&quot;&gt;int&lt;/span&gt; &lt;span style=&quot;color: #001080;&quot;&gt;sttPage&lt;/span&gt;, &lt;span style=&quot;color: #267f99;&quot;&gt;int&lt;/span&gt; &lt;span style=&quot;color: #001080;&quot;&gt;sizePage&lt;/span&gt;){&lt;/div&gt;&lt;br&gt;&lt;div&gt;&amp;nbsp; &amp;nbsp; &amp;nbsp; &amp;nbsp; &lt;span style=&quot;color: #267f99;&quot;&gt;Pageable&lt;/span&gt; &lt;span style=&quot;color: #001080;&quot;&gt;pageable1&lt;/span&gt; &lt;span style=&quot;color: #000000;&quot;&gt;=&lt;/span&gt; &lt;span style=&quot;color: #001080;&quot;&gt;PageRequest&lt;/span&gt;.&lt;span style=&quot;color: #795e26;&quot;&gt;of&lt;/span&gt;(sttPage, sizePage);&lt;/div&gt;&lt;br&gt;&lt;div&gt;&amp;nbsp; &amp;nbsp; &amp;nbsp; &amp;nbsp; &lt;span style=&quot;color: #af00db;&quot;&gt;return&lt;/span&gt; &lt;span style=&quot;color: #001080;&quot;&gt;khachHangRepo&lt;/span&gt;.&lt;span style=&quot;color: #795e26;&quot;&gt;findAll&lt;/span&gt;(pageable1);&lt;/div&gt;&lt;div&gt;&amp;nbsp; &amp;nbsp; }&lt;/div&gt;&lt;div&gt;&lt;br&gt;&lt;/div&gt;&lt;div&gt;}&lt;/div&gt;&lt;/div&gt;&lt;/h1&gt;" style="text;html=1;whiteSpace=wrap;overflow=hidden;rounded=0;" vertex="1" parent="9XwMOOoTPB6WWAjTyozQ-3">
          <mxGeometry x="10" y="30" width="570" height="370" as="geometry" />
        </mxCell>
      </root>
    </mxGraphModel>
  </diagram>
</mxfile>
